<svg xmlns="http://www.w3.org/2000/svg" width="32" height="20.788" viewBox="0 0 32 20.788">
  <path id="accusoft-svgrepo-com" d="M24.1,20.392C23.826,20.044,12.492,5.552,12.1,5.064c-.372-.488-.279-.627-.209-.7.14-.163.348-.14,1.161-.14.488,0,5.319-.023,5.829-.023A4.169,4.169,0,0,1,20.2,4.32a2.5,2.5,0,0,1,.6.511c.116.14,10.266,12.286,10.358,12.4.116.14.279.372.419.58.116.209.14.488-.047.6-.116.069-5.736,2.392-5.9,2.439a1.355,1.355,0,0,1-.7.14,1.545,1.545,0,0,1-.836-.6m5.736-.279.419.069s1.347.256,1.487.3c.139.024.255.14.255.187,0,.116-.069.163-.185.232-.093.069-6.177,3.808-6.293,3.879a1.373,1.373,0,0,1-.58.185,7.079,7.079,0,0,1-2.113-.279c-.348-.069-15.282-3.391-15.4-3.437-.14-.047-.232-.047-.232-.185-.023-.209.3-.279.557-.372s7.269-2.624,7.524-2.74a1.86,1.86,0,0,1,.72-.14c.163,0,1.137.14,1.579.209s1.695.256,1.695.256l2.856,3.692c.488.58.813.813,1.231.836a1.289,1.289,0,0,0,.6-.116c.117-.045,5.876-2.577,5.876-2.577m-16.3-9.058S16,14.215,16.023,14.238a.225.225,0,0,0,.093.116V14.4c-.093.069-4.483,4.133-4.505,4.157L6.989,20.252a1.132,1.132,0,0,0-.209.093.335.335,0,0,0-.14.348c0,.069.023,1.137.047,1.393l-.023.023S.975,23.922.928,23.922a3.266,3.266,0,0,1-.883.232c-.116-.093.023-.232.093-.325S11.867,12.263,12.308,11.8a2.212,2.212,0,0,1,1.229-.743" transform="translate(-0.001 -4.204)" fill="#fff"/>
</svg>
