<svg xmlns="http://www.w3.org/2000/svg" width="41.675" height="50" viewBox="0 0 41.675 50">
  <g id="add_note-01" data-name="add note-01" transform="translate(-137.188 -106.462)">
    <path id="Path_215" data-name="Path 215" d="M169.444,156.463H146.6c-.236-.048-.471-.1-.707-.145a10.377,10.377,0,0,1-8.689-10.461q-.013-10.225,0-20.447c0-2.912-.038-5.824.014-8.736a10.364,10.364,0,0,1,10.3-10.186c3.26-.026,6.509-.042,9.762,0a13.869,13.869,0,0,1,9.7,3.949c2.691,2.588,5.346,5.24,7.934,7.938a13.354,13.354,0,0,1,3.891,9.27c.085,6.23.068,12.461.016,18.69a10.217,10.217,0,0,1-6.749,9.444A24.66,24.66,0,0,1,169.444,156.463Zm-11.418-45.736c-.441-.026-.828-.066-1.214-.068-3.026,0-6.053-.01-9.079,0a6.216,6.216,0,0,0-6.376,6.389q-.012,14.422,0,28.842a6.214,6.214,0,0,0,6.381,6.389q10.3.016,20.6,0a6.806,6.806,0,0,0,1.592-.177,6.19,6.19,0,0,0,4.76-6.088c.022-5.856.008-11.713,0-17.568,0-.211-.057-.422-.044-.631.027-.436-.166-.531-.579-.528-3.26.017-6.508.027-9.762,0a6.212,6.212,0,0,1-6.282-6.337V110.727Zm4.321,1.346-.147.13v8.586a2.119,2.119,0,0,0,2.383,2.367h8.654a3.888,3.888,0,0,0-.261-.479,19.968,19.968,0,0,0-1.459-1.825q-3.507-3.567-7.075-7.075c-.645-.628-1.4-1.14-2.1-1.7Z" fill="#7f7f7f"/>
    <path id="Path_216" data-name="Path 216" d="M243.617,308.467v.574c0,1.187.012,2.374,0,3.561a2.07,2.07,0,1,1-4.14,0c-.016-1.2,0-2.373,0-3.561v-.572H236.6a12.649,12.649,0,0,1-1.605-.048,2.017,2.017,0,0,1-1.755-2.209,2.052,2.052,0,0,1,2.037-1.91c1.2-.017,2.407,0,3.61,0h.576v-.558c0-1.2-.012-2.406,0-3.609a2.069,2.069,0,1,1,4.137,0c.02,1.364,0,2.726,0,4.172h4.069a2.081,2.081,0,1,1,.047,4.158c-1.173.018-2.347,0-3.513,0Z" transform="translate(-83.522 -166.574)" fill="#7f7f7f"/>
  </g>
</svg>
