<svg xmlns="http://www.w3.org/2000/svg" xmlns:xlink="http://www.w3.org/1999/xlink" width="41.702" height="50" viewBox="0 0 41.702 50">
  <defs>
    <filter id="Path_173">
      <feOffset dy="3" input="SourceAlpha"/>
      <feGaussianBlur stdDeviation="3" result="blur"/>
      <feFlood flood-opacity="0.161" result="color"/>
      <feComposite operator="out" in="SourceGraphic" in2="blur"/>
      <feComposite operator="in" in="color"/>
      <feComposite operator="in" in2="SourceGraphic"/>
    </filter>
    <filter id="Path_174">
      <feOffset dy="3" input="SourceAlpha"/>
      <feGaussianBlur stdDeviation="3" result="blur-2"/>
      <feFlood flood-opacity="0.161" result="color-2"/>
      <feComposite operator="out" in="SourceGraphic" in2="blur-2"/>
      <feComposite operator="in" in="color-2"/>
      <feComposite operator="in" in2="SourceGraphic"/>
    </filter>
  </defs>
  <g id="Group_477" data-name="Group 477" transform="translate(-464 -788)">
    <g data-type="innerShadowGroup">
      <path id="Path_173-2" data-name="Path 173" d="M91.623,44.76h11.621a3.138,3.138,0,0,0,.372.089,14.042,14.042,0,0,1,8.462,3.936q3.914,3.812,7.73,7.733a13.791,13.791,0,0,1,4.044,9.759c.046,6.052.06,12.106,0,18.157a10.344,10.344,0,0,1-10.469,10.319q-10.349.02-20.7-.012a10.979,10.979,0,0,1-2.694-.346A10.335,10.335,0,0,1,82.228,84.22c-.014-5.386,0-10.771,0-16.158,0-4.426-.108-8.855.042-13.276a9.9,9.9,0,0,1,6.418-9.212A18.973,18.973,0,0,1,91.623,44.76Zm11.425,4.249c-.417-.026-.8-.069-1.19-.07q-4.54-.008-9.079,0a6.221,6.221,0,0,0-6.4,6.419q-.008,14.4,0,28.8a6.225,6.225,0,0,0,6.406,6.418q10.274.012,20.551,0a6.219,6.219,0,0,0,6.383-6.392q.016-8.688,0-17.379c0-.391-.06-.794-.094-1.222h-.652c-3.174,0-6.346.008-9.523,0a6.224,6.224,0,0,1-6.4-6.416V49.6Zm4.318,1.345-.143.13v8.59a2.118,2.118,0,0,0,2.385,2.365h8.573l.116-.14c-.573-.714-1.089-1.481-1.725-2.13q-3.535-3.613-7.142-7.151A26.325,26.325,0,0,0,107.366,50.354Z" transform="translate(381.81 743.24)" fill="#3683ff"/>
      <g transform="matrix(1, 0, 0, 1, 464, 788)" filter="url(#Path_173)">
        <path id="Path_173-3" data-name="Path 173" d="M91.623,44.76h11.621a3.138,3.138,0,0,0,.372.089,14.042,14.042,0,0,1,8.462,3.936q3.914,3.812,7.73,7.733a13.791,13.791,0,0,1,4.044,9.759c.046,6.052.06,12.106,0,18.157a10.344,10.344,0,0,1-10.469,10.319q-10.349.02-20.7-.012a10.979,10.979,0,0,1-2.694-.346A10.335,10.335,0,0,1,82.228,84.22c-.014-5.386,0-10.771,0-16.158,0-4.426-.108-8.855.042-13.276a9.9,9.9,0,0,1,6.418-9.212A18.973,18.973,0,0,1,91.623,44.76Zm11.425,4.249c-.417-.026-.8-.069-1.19-.07q-4.54-.008-9.079,0a6.221,6.221,0,0,0-6.4,6.419q-.008,14.4,0,28.8a6.225,6.225,0,0,0,6.406,6.418q10.274.012,20.551,0a6.219,6.219,0,0,0,6.383-6.392q.016-8.688,0-17.379c0-.391-.06-.794-.094-1.222h-.652c-3.174,0-6.346.008-9.523,0a6.224,6.224,0,0,1-6.4-6.416V49.6Zm4.318,1.345-.143.13v8.59a2.118,2.118,0,0,0,2.385,2.365h8.573l.116-.14c-.573-.714-1.089-1.481-1.725-2.13q-3.535-3.613-7.142-7.151A26.325,26.325,0,0,0,107.366,50.354Z" transform="translate(-82.19 -44.76)" fill="#fff"/>
      </g>
    </g>
    <g data-type="innerShadowGroup">
      <path id="Path_174-2" data-name="Path 174" d="M185.155,247.989c-1.509,0-2.931.017-4.354-.012a3.437,3.437,0,0,1-1.258-.237,2.262,2.262,0,0,1-1.277-2.55,2.3,2.3,0,0,1,2.2-1.824c1.353-.02,2.705,0,4.058,0h.632v-2.158c0-.884-.023-1.769.017-2.65a2.287,2.287,0,0,1,4.562,0c.045,1.386.017,2.776.022,4.165v.648h1.384c1.1,0,2.2-.016,3.3,0a2.275,2.275,0,0,1,2.231,2.089,2.22,2.22,0,0,1-1.915,2.469,17.859,17.859,0,0,1-2.158.064c-.882.01-1.766,0-2.65.01a1.189,1.189,0,0,0-.192.059v.538c0,1.3.009,2.6,0,3.9a2.3,2.3,0,1,1-4.6,0c-.01-1.282,0-2.562,0-3.842Z" transform="translate(297.402 575.207)" fill="#3683ff"/>
      <g transform="matrix(1, 0, 0, 1, 464, 788)" filter="url(#Path_174)">
        <path id="Path_174-3" data-name="Path 174" d="M185.155,247.989c-1.509,0-2.931.017-4.354-.012a3.437,3.437,0,0,1-1.258-.237,2.262,2.262,0,0,1-1.277-2.55,2.3,2.3,0,0,1,2.2-1.824c1.353-.02,2.705,0,4.058,0h.632v-2.158c0-.884-.023-1.769.017-2.65a2.287,2.287,0,0,1,4.562,0c.045,1.386.017,2.776.022,4.165v.648h1.384c1.1,0,2.2-.016,3.3,0a2.275,2.275,0,0,1,2.231,2.089,2.22,2.22,0,0,1-1.915,2.469,17.859,17.859,0,0,1-2.158.064c-.882.01-1.766,0-2.65.01a1.189,1.189,0,0,0-.192.059v.538c0,1.3.009,2.6,0,3.9a2.3,2.3,0,1,1-4.6,0c-.01-1.282,0-2.562,0-3.842Z" transform="translate(-166.6 -212.79)" fill="#fff"/>
      </g>
    </g>
  </g>
</svg>
