<svg xmlns="http://www.w3.org/2000/svg" width="41.728" height="35" viewBox="0 0 41.728 35">
  <path id="abbrobotstudio-svgrepo-com" d="M41.731,20.239a16.693,16.693,0,0,1-33.387,0H10.2A14.833,14.833,0,1,0,25.038,5.406V3.545A16.693,16.693,0,0,1,41.731,20.239ZM25.038,14.674A5.564,5.564,0,1,0,30.6,20.239a5.564,5.564,0,0,0-5.564-5.564Zm-3.478,0-1.043-11.6L16.239,6.415,13.7,3.911a8.121,8.121,0,0,0-9.773-.643L.415,5.528A.939.939,0,0,0,.154,6.815a.939.939,0,0,0,1.287.261L4.919,4.8a6.33,6.33,0,0,1,7.46.383l2.382,2.4-3.982,3.165Z" transform="translate(-0.003 -1.932)" fill="#fff"/>
</svg>
