<svg xmlns="http://www.w3.org/2000/svg" width="50.341" height="50.524" viewBox="0 0 50.341 50.524">
  <path id="Untitled-1-01" d="M80.358,43.9a25.279,25.279,0,0,1,2.8.709,10.678,10.678,0,0,1,5.022,16.284A12.32,12.32,0,0,1,86.865,62.4Q75.47,73.677,64.057,84.956a7.293,7.293,0,0,1-11.163-.815,7.041,7.041,0,0,1,.485-8.861c1.615-1.724,3.337-3.352,5.017-5.017L73.774,55.043a4.5,4.5,0,0,0,.331-.4l2.64,2.716a1.529,1.529,0,0,0-.4.252q-9.929,9.8-19.847,19.6a3.718,3.718,0,0,0-1.287,3.061,3.417,3.417,0,0,0,2.12,3,3.485,3.485,0,0,0,3.6-.348,5.019,5.019,0,0,0,.669-.578L84.235,59.96A7.225,7.225,0,1,0,74.117,49.65Q62.646,60.977,51.2,72.319a10.471,10.471,0,0,0-2.1,12.5,10.314,10.314,0,0,0,7.963,5.787,10.767,10.767,0,0,0,9.727-3.281q12.417-12.3,24.84-24.577a3.754,3.754,0,0,0,.4-.545l2.587,2.653c-.048.053-.162.182-.285.3Q81.663,77.682,69,90.225a13.183,13.183,0,0,1-3.68,2.554,14.164,14.164,0,0,1-14.57-.876,13.794,13.794,0,0,1-6.383-10.6c-.023-.192-.066-.381-.1-.573V79.35a2.178,2.178,0,0,0,.081-.331,13.046,13.046,0,0,1,1.489-5.411,11.2,11.2,0,0,1,1.767-2.8Q59.509,58.925,71.5,47.133a10.506,10.506,0,0,1,4.164-2.627c.856-.273,1.739-.434,2.61-.646Z" transform="translate(-44.27 -43.86)" fill="#7f7f7f"/>
</svg>
