<svg xmlns="http://www.w3.org/2000/svg" width="49.819" height="50" viewBox="0 0 49.819 50">
  <path id="Untitled-1-01" d="M79.984,43.895a25.017,25.017,0,0,1,2.772.7,10.568,10.568,0,0,1,4.97,16.115,12.191,12.191,0,0,1-1.3,1.5Q75.146,73.368,63.852,84.53A7.218,7.218,0,0,1,52.8,83.723a6.969,6.969,0,0,1,.48-8.769c1.6-1.706,3.3-3.317,4.965-4.965L73.468,54.927a4.451,4.451,0,0,0,.327-.4l2.613,2.687a1.513,1.513,0,0,0-.4.25q-9.826,9.7-19.642,19.4a3.68,3.68,0,0,0-1.274,3.03,3.382,3.382,0,0,0,2.1,2.965,3.449,3.449,0,0,0,3.559-.345,4.967,4.967,0,0,0,.662-.572L83.821,59.793a7.15,7.15,0,1,0-10.013-10.2Q62.456,60.8,51.131,72.024a10.363,10.363,0,0,0-2.083,12.371,10.207,10.207,0,0,0,7.88,5.727,10.655,10.655,0,0,0,9.626-3.247Q78.843,74.706,91.136,62.553a3.715,3.715,0,0,0,.392-.539l2.56,2.625c-.047.052-.16.18-.282.3Q81.276,77.331,68.745,89.745A13.046,13.046,0,0,1,65.1,92.272a14.017,14.017,0,0,1-14.419-.867,13.651,13.651,0,0,1-6.317-10.49c-.022-.19-.065-.377-.1-.567V78.982a2.155,2.155,0,0,0,.08-.327A12.91,12.91,0,0,1,45.824,73.3a11.079,11.079,0,0,1,1.748-2.77Q59.351,58.769,71.215,47.1a10.4,10.4,0,0,1,4.121-2.6c.847-.27,1.721-.43,2.583-.639Z" transform="translate(-44.27 -43.86)" fill="#3683ff"/>
</svg>
