<svg xmlns="http://www.w3.org/2000/svg" width="44.272" height="50.499" viewBox="0 0 44.272 50.499">
  <g id="calender-01" transform="translate(-119.289 -109.544)">
    <path id="Path_202" data-name="Path 202" d="M159.995,159.793H122.886c-2.577-.636-3.358-2.52-3.347-4.732.059-10.154.026-20.309.026-30.463,0-2.571-.009-5.141,0-7.713a3.874,3.874,0,0,1,3.956-3.957c1.123-.012,2.246,0,3.37,0h.486c0-.333-.008-.592,0-.85a2.34,2.34,0,0,1,4.678,0c.01.27,0,.541,0,.815h18.731c.177-2.121.856-3.035,2.268-3.087a2.308,2.308,0,0,1,1.585.522,2.8,2.8,0,0,1,.859,2.6c1.256,0,2.457-.013,3.652.007a5.574,5.574,0,0,1,1.3.15,3.871,3.871,0,0,1,2.857,3.9v39.005a3.9,3.9,0,0,1-2.814,3.644C160.329,159.681,160.159,159.738,159.995,159.793Zm-7.619-6.25v-5.268a3.889,3.889,0,0,1,4.1-4.1h5.244V122.325h-40.6V151.1a2.713,2.713,0,0,0,.053.582,2.351,2.351,0,0,0,2.508,1.864Zm-20.315-39.028c0,.295.01.567,0,.839a2.34,2.34,0,0,1-4.678-.023c-.009-.27,0-.54,0-.828-1.435,0-2.8-.042-4.159.014a2.119,2.119,0,0,0-2.036,1.913c-.1,1.418-.025,2.848-.025,4.28h40.58c0-1.394.042-2.758-.014-4.12a2.147,2.147,0,0,0-1.956-2.05c-1.4-.091-2.818-.022-4.27-.022v.747a2.348,2.348,0,1,1-4.682,0v-.751ZM121.128,154.3v1.369a2.352,2.352,0,0,0,2.547,2.556h35.531a2.35,2.35,0,0,0,2.546-2.56v-8.81c-.206.194-.335.31-.458.432-2.427,2.427-4.861,4.848-7.276,7.286a1.66,1.66,0,0,1-1.292.537q-14.274-.018-28.551,0A4.782,4.782,0,0,1,121.128,154.3Zm32.811-2.087,6.5-6.479c-1.418,0-2.911-.043-4.4.014a2.265,2.265,0,0,0-2.087,2.2c-.023.583-.008,1.174-.008,1.753ZM130.5,113.707c0-.5.01-1.006,0-1.508a.78.78,0,1,0-1.555.021q-.013,1.483,0,2.966a.782.782,0,0,0,.783.861.8.8,0,0,0,.769-.882C130.507,114.68,130.5,114.194,130.5,113.707Zm21.876,0c0,.486-.007.973,0,1.459a.786.786,0,0,0,.769.878.771.771,0,0,0,.783-.859q.016-1.483,0-2.967a.772.772,0,0,0-.793-.853c-.46.01-.755.339-.764.883,0,.489.005.976.005,1.462Z" transform="translate(0 0)" fill="#7f7f7f" stroke="#707070" stroke-width="0.5"/>
    <path id="Path_203" data-name="Path 203" d="M230.6,235.791c-.522,0-1.043.013-1.565,0a1.547,1.547,0,0,1-1.543-1.565q-.022-1.565,0-3.13a1.539,1.539,0,0,1,1.549-1.555q1.565-.023,3.13,0a1.539,1.539,0,0,1,1.565,1.538q.029,1.585,0,3.172a1.532,1.532,0,0,1-1.523,1.531C231.679,235.806,231.141,235.791,230.6,235.791Zm-1.523-1.594h3.065V231.13h-3.065Z" transform="translate(-93.868 -104.12)" fill="#7f7f7f" stroke="#707070" stroke-width="0.5"/>
    <path id="Path_204" data-name="Path 204" d="M302.57,229.617c.5,0,1.009-.008,1.514,0a1.546,1.546,0,0,1,1.591,1.565q.021,1.565,0,3.13a1.539,1.539,0,0,1-1.552,1.553q-1.565.027-3.124,0a1.535,1.535,0,0,1-1.565-1.587q-.02-1.538,0-3.075a1.542,1.542,0,0,1,1.575-1.579C301.528,229.609,302.05,229.617,302.57,229.617Zm1.51,4.665v-3.064h-3.064v3.064Z" transform="translate(-156.426 -104.193)" fill="#7f7f7f" stroke="#707070" stroke-width="0.5"/>
    <path id="Path_205" data-name="Path 205" d="M305.7,304.626c0,.522.012,1.043,0,1.565a1.548,1.548,0,0,1-1.552,1.555q-1.565.025-3.123,0a1.543,1.543,0,0,1-1.565-1.589q-.02-1.538,0-3.075a1.54,1.54,0,0,1,1.576-1.577q1.538-.02,3.075,0a1.558,1.558,0,0,1,1.6,1.612C305.7,303.616,305.7,304.121,305.7,304.626Zm-4.664,1.525H304.1v-3.066h-3.063Z" transform="translate(-156.443 -166.7)" fill="#7f7f7f" stroke="#707070" stroke-width="0.5"/>
    <path id="Path_206" data-name="Path 206" d="M377.584,304.641c0,.488.008.977,0,1.465a1.556,1.556,0,0,1-1.6,1.608c-1.024.012-2.05.014-3.074,0a1.548,1.548,0,0,1-1.565-1.587q-.02-1.538,0-3.074a1.54,1.54,0,0,1,1.565-1.581q1.538-.022,3.075,0a1.552,1.552,0,0,1,1.6,1.609C377.592,303.6,377.584,304.12,377.584,304.641Zm-4.666,1.48h3.069v-3.066h-3.069Z" transform="translate(-218.957 -166.671)" fill="#7f7f7f" stroke="#707070" stroke-width="0.5"/>
    <path id="Path_207" data-name="Path 207" d="M233.792,376.464c0,.522.01,1.043,0,1.565a1.546,1.546,0,0,1-1.579,1.577q-1.538.025-3.074,0a1.55,1.55,0,0,1-1.592-1.615q-.013-1.514,0-3.026a1.542,1.542,0,0,1,1.6-1.6q1.511-.02,3.026,0A1.555,1.555,0,0,1,233.792,375C233.8,375.487,233.792,375.976,233.792,376.464Zm-1.583-1.51h-3.065v3.065h3.065Z" transform="translate(-93.916 -229.188)" fill="#7f7f7f" stroke="#707070" stroke-width="0.5"/>
    <path id="Path_208" data-name="Path 208" d="M299.422,376.375c0-.5-.012-1.008,0-1.512a1.531,1.531,0,0,1,1.517-1.536q1.609-.034,3.221,0a1.528,1.528,0,0,1,1.5,1.548q.023,1.565,0,3.122a1.539,1.539,0,0,1-1.543,1.565q-1.586.031-3.173,0a1.535,1.535,0,0,1-1.529-1.574C299.411,377.449,299.42,376.912,299.422,376.375Zm4.665-1.47h-3.074v3.066h3.074Z" transform="translate(-156.418 -229.149)" fill="#7f7f7f" stroke="#707070" stroke-width="0.5"/>
    <path id="Path_209" data-name="Path 209" d="M371.291,232.657c0-.522-.013-1.043,0-1.565a1.54,1.54,0,0,1,1.532-1.521q1.585-.023,3.173,0a1.528,1.528,0,0,1,1.532,1.519c.022,1.073.025,2.148,0,3.221a1.517,1.517,0,0,1-1.505,1.5q-1.609.035-3.223,0a1.535,1.535,0,0,1-1.51-1.543C371.28,233.732,371.291,233.195,371.291,232.657Zm4.652,1.577v-3.064h-3.066v3.064Z" transform="translate(-218.914 -104.147)" fill="#7f7f7f" stroke="#707070" stroke-width="0.5"/>
    <path id="Path_210" data-name="Path 210" d="M158.789,301.481c.522,0,1.043-.013,1.565,0A1.536,1.536,0,0,1,161.885,303c.022,1.073.025,2.147,0,3.22a1.521,1.521,0,0,1-1.508,1.5q-1.609.033-3.221,0a1.525,1.525,0,0,1-1.5-1.5q-.035-1.609,0-3.221a1.527,1.527,0,0,1,1.531-1.519C157.715,301.468,158.252,301.481,158.789,301.481Zm-1.551,1.582v3.064H160.3v-3.064Z" transform="translate(-31.388 -166.683)" fill="#7f7f7f" stroke="#707070" stroke-width="0.5"/>
    <path id="Path_211" data-name="Path 211" d="M230.63,307.732c-.522,0-1.043.009-1.565,0a1.554,1.554,0,0,1-1.581-1.577q-.02-1.538,0-3.075a1.55,1.55,0,0,1,1.612-1.592q1.514-.016,3.027,0a1.543,1.543,0,0,1,1.605,1.6c.013,1.024.014,2.05,0,3.074a1.541,1.541,0,0,1-1.587,1.565C231.64,307.741,231.135,307.732,230.63,307.732Zm-1.547-4.665v3.064h3.064v-3.064Z" transform="translate(-93.859 -166.687)" fill="#7f7f7f" stroke="#707070" stroke-width="0.5"/>
    <path id="Path_212" data-name="Path 212" d="M158.717,235.852c-.522,0-1.043.013-1.565,0A1.553,1.553,0,0,1,155.6,234.3q-.023-1.565,0-3.122a1.548,1.548,0,0,1,1.59-1.565q1.536-.018,3.074,0a1.544,1.544,0,0,1,1.575,1.579q.023,1.536,0,3.073a1.552,1.552,0,0,1-1.615,1.592C159.727,235.861,159.222,235.854,158.717,235.852Zm-1.544-1.591h3.079v-3.054h-3.079Z" transform="translate(-31.349 -104.181)" fill="#7f7f7f" stroke="#707070" stroke-width="0.5"/>
    <path id="Path_213" data-name="Path 213" d="M158.706,379.57c-.522,0-1.043.013-1.565,0a1.548,1.548,0,0,1-1.549-1.556q-.023-1.565,0-3.12a1.551,1.551,0,0,1,1.544-1.565q1.582-.03,3.169,0a1.54,1.54,0,0,1,1.523,1.53q.033,1.585,0,3.169a1.547,1.547,0,0,1-1.565,1.538C159.747,379.583,159.226,379.57,158.706,379.57Zm-1.53-1.6h3.062v-3.058h-3.062Z" transform="translate(-31.341 -229.153)" fill="#7f7f7f" stroke="#707070" stroke-width="0.5"/>
    <path id="Path_214" data-name="Path 214" d="M245.743,165.333h-5.077c-.146,0-.293.008-.438,0a.746.746,0,0,1-.732-.809.726.726,0,0,1,.747-.739c.552-.021,1.106-.007,1.659-.007,3.043,0,6.085-.009,9.129.013a1.152,1.152,0,0,1,.806.314.833.833,0,0,1,.06.792,1.106,1.106,0,0,1-.783.424C249.323,165.351,247.532,165.333,245.743,165.333Z" transform="translate(-104.312 -46.939)" fill="#7f7f7f" stroke="#707070" stroke-width="0.5"/>
  </g>
</svg>
