<svg xmlns="http://www.w3.org/2000/svg" width="49.633" height="49.639" viewBox="0 0 49.633 49.639">
  <path id="Untitled-1-01" d="M142.63,145.064c-.284-.243-.463-.376-.62-.531q-10.5-10.492-20.993-20.984a1.882,1.882,0,0,1-.649-1.836,1.766,1.766,0,0,1,2.851-.953,5.9,5.9,0,0,1,.436.423q10.442,10.431,20.878,20.86c.148.148.284.334.444.53.226-.213.388-.358.54-.512q10.551-10.551,21.1-21.111a1.9,1.9,0,0,1,1.827-.673,1.775,1.775,0,0,1,1.01,2.842,5.621,5.621,0,0,1-.459.481q-10.473,10.477-20.95,20.949a5.979,5.979,0,0,1-.558.432c.235.246.38.405.533.559q10.536,10.53,21.061,21.071a2.925,2.925,0,0,1,.731,1.253,1.649,1.649,0,0,1-.858,1.775,1.755,1.755,0,0,1-1.974-.155,5.852,5.852,0,0,1-.481-.459l-20.953-20.946a5.675,5.675,0,0,1-.41-.521l-.241-.083a2.72,2.72,0,0,1-.345.567Q134,158.6,123.45,169.155a1.846,1.846,0,0,1-1.985.627,1.755,1.755,0,0,1-.848-2.784,6.108,6.108,0,0,1,.46-.479q10.492-10.494,20.989-20.987C142.212,145.383,142.382,145.268,142.63,145.064Z" transform="translate(-120.224 -120.234)" fill="#7f7f7f"/>
</svg>
