<svg id="copy-01" xmlns="http://www.w3.org/2000/svg" width="43.72" height="50" viewBox="0 0 43.72 50">
  <path id="Path_175" data-name="Path 175" d="M86.247,72.061H61.458a.506.506,0,0,0-.121-.07,6.493,6.493,0,0,1-5.438-6.72V35.025c0-.26,0-.521.012-.78a6.236,6.236,0,0,1,5.667-5.833c.7-.048,1.413-.007,2.111-.007a6.7,6.7,0,0,1,6.752-6.342c5.935.1,11.873.025,17.809.041a1.031,1.031,0,0,1,.7.3q5.225,5.954,10.418,11.948a1.156,1.156,0,0,1,.241.691c.022,1.431.011,2.862.011,4.293v20.05a6.464,6.464,0,0,1-5.406,6.342,23.084,23.084,0,0,1-2.367.133,6.762,6.762,0,0,1-2.795,5.034A7.769,7.769,0,0,1,86.247,72.061Zm-.682-46.847H70.38a3.283,3.283,0,0,0-3.562,3.543V59.152a3.279,3.279,0,0,0,3.517,3.539H92.98a3.278,3.278,0,0,0,3.516-3.5V37.7c-.8,0-1.54.006-2.284,0a23.874,23.874,0,0,1-3.07-.059,6.374,6.374,0,0,1-5.579-6.467C85.563,29.213,85.564,27.248,85.564,25.214ZM88.67,65.82H70.258a6.4,6.4,0,0,1-1.021-.054A6.5,6.5,0,0,1,63.7,59.231V31.417a17.2,17.2,0,0,0-2.391.213,3.072,3.072,0,0,0-2.291,3.224V65.442a3.277,3.277,0,0,0,3.512,3.5H80.139c1.774,0,3.546.013,5.319,0A3.254,3.254,0,0,0,88.67,65.82Zm.017-40.551c0,1.517.014,2.879,0,4.242a6.4,6.4,0,0,0,1.373,3.979,2.5,2.5,0,0,0,2.245,1.118c1.249-.059,2.5-.013,3.754-.016a3.906,3.906,0,0,0,.4-.043Z" transform="translate(-55.9 -22.061)" fill="#7f7f7f"/>
  <path id="Path_176" data-name="Path 176" d="M208.541,272.245h-8.368a1.8,1.8,0,0,1-1.758-1.13,1.762,1.762,0,0,1,.317-1.963,1.947,1.947,0,0,1,1.569-.648H216.57a3.546,3.546,0,0,1,1.092.145,1.838,1.838,0,0,1,1.186,2,1.857,1.857,0,0,1-1.88,1.591C214.16,272.253,211.35,272.245,208.541,272.245Z" transform="translate(-183.306 -239.185)" fill="#7f7f7f"/>
  <path id="Path_177" data-name="Path 177" d="M208.57,207.534c-2.808,0-5.617.01-8.426,0a1.84,1.84,0,0,1-1.823-1.513,1.815,1.815,0,0,1,1.059-2.012,3.056,3.056,0,0,1,1.079-.2c1.092-.025,2.184-.009,3.276-.009H216.61a3.511,3.511,0,0,1,1.094.145,1.847,1.847,0,0,1-.531,3.573c-.723.033-1.447.016-2.17.017h-6.437Z" transform="translate(-183.341 -182.175)" fill="#7f7f7f"/>
</svg>
