<svg id="delete-01" xmlns="http://www.w3.org/2000/svg" width="43.926" height="50" viewBox="0 0 43.926 50">
  <path id="Path_178" data-name="Path 178" d="M89.753,18.91a11.443,11.443,0,0,1,2.079.878,4.175,4.175,0,0,1,1.823,3.59c.011.439,0,.877,0,1.39h.532c2.213,0,4.427-.01,6.64,0a4.387,4.387,0,0,1,1.927,8.391.607.607,0,0,0-.443.594c-.27,3.424-.561,6.84-.846,10.261q-.467,5.616-.937,11.233c-.245,2.949-.507,5.9-.717,8.852a4.906,4.906,0,0,1-1.957,4,4.364,4.364,0,0,1-2.568.8q-11.89.01-23.779,0a4.341,4.341,0,0,1-4.427-4.027c-.293-3.028-.521-6.062-.774-9.092q-.424-5.082-.845-10.163-.411-4.99-.816-9.975c-.055-.665-.1-1.332-.188-1.992a.669.669,0,0,0-.33-.443,4.394,4.394,0,0,1-2.378-5.687,4.448,4.448,0,0,1,4.227-2.756c2.2-.011,4.395,0,6.592,0H73.2a17.027,17.027,0,0,1,.012-1.971,4.285,4.285,0,0,1,3.668-3.818.915.915,0,0,0,.179-.07ZM67.419,33.584c.057.708.11,1.356.164,2q.36,4.376.72,8.753.417,5.028.838,10.063c.273,3.3.534,6.614.819,9.92.105,1.223.611,1.654,1.834,1.654h23.44a1.441,1.441,0,0,0,1.577-1.388c.108-.97.18-1.943.259-2.915q.507-6.175,1.013-12.351.561-6.757,1.132-13.516c.062-.734.111-1.475.168-2.223ZM83.4,30.631h17.138a5.191,5.191,0,0,0,.586-.012,1.454,1.454,0,0,0,1.175-2.064,1.582,1.582,0,0,0-1.614-.856q-17.287.011-34.573,0a3.746,3.746,0,0,0-.439.012,1.459,1.459,0,0,0,0,2.9,5.5,5.5,0,0,0,.586.012Zm-7.321-5.9H90.731V23.489a1.494,1.494,0,0,0-1.668-1.65H77.65A1.451,1.451,0,0,0,76.094,23.2C76.057,23.7,76.083,24.2,76.083,24.736Z" transform="translate(-61.437 -18.91)" fill="#3683ff"/>
  <path id="Path_179" data-name="Path 179" d="M162.412,192.344a1.684,1.684,0,0,1-1.65,1.71,1.779,1.779,0,0,1-1.826-1.872q-.61-9.816-1.23-19.635c-.163-2.6-.32-5.221-.486-7.832a1.781,1.781,0,0,1,1-1.907,1.719,1.719,0,0,1,2.45,1.507c.205,3.127.391,6.258.579,9.385q.434,7.026.878,14.05C162.224,189.172,162.306,190.592,162.412,192.344Z" transform="translate(-145.74 -150.994)" fill="#3683ff"/>
  <path id="Path_180" data-name="Path 180" d="M294.094,166.786l-1.224,19.521q-.189,3.022-.369,6.047a1.763,1.763,0,0,1-1.8,1.844,1.743,1.743,0,0,1-1.665-2.012c.191-3.3.4-6.6.61-9.906q.324-5.181.647-10.364c.156-2.5.3-4.991.47-7.486a1.724,1.724,0,0,1,3.446.111c0,.748-.08,1.5-.123,2.245Z" transform="translate(-261.768 -151.137)" fill="#3683ff"/>
  <path id="Path_181" data-name="Path 181" d="M232.511,178.444v13.742a1.728,1.728,0,0,1-2.294,1.8,1.679,1.679,0,0,1-1.157-1.51,5.487,5.487,0,0,1-.01-.579V164.872c0-1.384.639-2.191,1.736-2.191s1.736.806,1.736,2.193Z" transform="translate(-208.819 -151.03)" fill="#3683ff"/>
</svg>
