<svg xmlns="http://www.w3.org/2000/svg" width="49.989" height="50" viewBox="0 0 49.989 50">
  <g id="Group_478" data-name="Group 478" transform="translate(-464 -778.001)">
    <path id="Path_186" data-name="Path 186" d="M158.786,51.7a3.218,3.218,0,0,1-3.167-4.049c.646-2.3,1.506-4.543,2.281-6.807.137-.4.338-.777.474-1.178a8.357,8.357,0,0,1,2.206-3.309q6.859-6.836,13.7-13.7c1.511-1.51,3.014-3.025,4.542-4.517a4.81,4.81,0,0,1,6.813-.057q1.766,1.675,3.446,3.442a4.83,4.83,0,0,1-.162,6.97c-5.714,5.716-11.465,11.394-17.127,17.162a13.733,13.733,0,0,1-5.67,3.718c-2.2.7-4.368,1.475-6.555,2.2A4.416,4.416,0,0,1,158.786,51.7Zm22.031-20.008L175.508,26.4c-3.728,3.729-7.513,7.515-11.257,11.257l5.313,5.3C173.318,39.2,177.1,35.41,180.816,31.693Zm-2.725-7.951,5.378,5.387c1.038-1.031,2.141-2.095,3.205-3.2a1.37,1.37,0,0,0,0-2q-1.693-1.742-3.445-3.436a1.316,1.316,0,0,0-1.873-.058c-1.141,1.1-2.229,2.249-3.268,3.307Zm-16.3,16.484a64.178,64.178,0,0,0-2.926,8.106,63.512,63.512,0,0,0,8.1-2.952Z" transform="translate(323.504 761.299)" fill="#3683ff"/>
    <path id="Path_187" data-name="Path 187" d="M64.773,98.993c-4.972,0-9.945.014-14.918,0a8.556,8.556,0,0,1-8.515-6.757,9.13,9.13,0,0,1-.186-1.964q-.018-13.54,0-27.08a8.688,8.688,0,0,1,8.665-8.722q3.919-.022,7.838,0a1.76,1.76,0,0,1,1.909,1.451,1.7,1.7,0,0,1-1.8,1.97c-2.594.011-5.189,0-7.783,0a5.157,5.157,0,0,0-5.154,3.7,6.049,6.049,0,0,0-.208,1.636q-.018,13.512,0,27.026A5.1,5.1,0,0,0,50,95.568q14.785.013,29.567,0a5.143,5.143,0,0,0,5.408-5.4c0-2.568-.006-5.138,0-7.706a1.688,1.688,0,0,1,1.486-1.7,1.707,1.707,0,0,1,1.912,1.286,2.649,2.649,0,0,1,.054.636v7.6a8.567,8.567,0,0,1-8.782,8.711C74.683,99.006,69.729,98.993,64.773,98.993Z" transform="translate(422.855 729.002)" fill="#3683ff"/>
  </g>
</svg>
