<svg width="1621" height="875" viewBox="0 0 1621 875" fill="none" xmlns="http://www.w3.org/2000/svg">
<path d="M1430.88 442.049C1428.34 440.019 1425.46 437.313 1422.76 434.438C1424.28 437.989 1425.46 441.034 1430.88 442.049Z" fill="black"/>
<path d="M1419.04 428.516C1418.02 427.671 1417.01 426.994 1415.99 426.148C1417.68 428.685 1420.05 431.73 1422.76 434.436C1421.91 432.576 1420.9 430.377 1419.04 428.516Z" fill="black"/>
<path d="M1060.45 332.107C1057.75 330.077 1055.21 327.878 1053.01 325.68C1050.64 372.362 1048.45 418.874 1046.08 465.556C1048.62 465.725 1051.15 465.725 1053.52 465.894C1079.06 428.515 1053.69 376.083 1060.45 332.107Z" fill="black"/>
<path d="M1484.49 551.309C1480.26 517.482 1476.37 483.824 1471.97 449.996C1471.63 447.459 1468.93 444.415 1466.56 443.061C1454.21 436.127 1441.53 429.869 1429.35 422.934C1426.98 421.581 1424.95 417.86 1424.95 415.154C1424.95 414.308 1424.95 413.462 1424.95 412.617C1421.06 413.801 1417.34 415.492 1413.96 418.367C1412.61 419.72 1413.62 422.596 1415.99 426.148C1417 426.824 1418.02 427.67 1419.03 428.516C1420.89 430.376 1421.91 432.406 1422.75 434.435C1425.46 437.311 1428.34 440.017 1430.87 442.047C1425.46 441.032 1424.28 437.818 1422.75 434.435C1420.22 431.729 1417.68 428.854 1415.99 426.148C1404.32 417.691 1388.25 413.801 1385.21 399.762C1373.37 357.478 1398.74 313.502 1371.67 274.601C1351.38 247.539 1322.62 237.39 1293.87 225.551C1221.14 200.857 1137.25 177.685 1062.49 204.916C1062.49 205.931 1062.49 207.115 1062.32 208.13C1060.97 219.124 1067.73 231.301 1057.76 241.111C1057.25 241.619 1057.42 242.803 1057.42 243.649C1056.91 251.936 1056.23 260.055 1055.9 268.173C1054.88 287.286 1054.03 306.398 1053.02 325.68C1055.22 327.879 1057.59 330.078 1060.46 332.107C1053.7 376.083 1079.07 428.516 1053.7 465.726C1051.16 465.557 1048.79 465.557 1046.25 465.388C1046.09 468.601 1045.92 471.815 1045.75 475.028C1045.58 478.58 1045.75 482.132 1045.75 485.515C1056.06 485.515 1065.37 485.515 1075.18 485.515C1075.18 397.056 1075.18 309.274 1075.18 220.984C1078.39 220.646 1080.76 220.477 1083.3 220.477C1133.19 219.969 1182.41 226.397 1230.78 237.221C1256.15 242.803 1281.02 251.598 1305.37 260.901C1321.27 266.989 1332.43 279.336 1331.59 298.449C1331.59 298.787 1332.27 299.126 1332.6 299.633C1337.17 300.31 1343.09 301.493 1344.11 304.538C1347.49 314.179 1349.35 324.496 1351.89 335.49C1345.12 335.49 1338.86 335.49 1332.27 335.49C1338.02 363.567 1343.94 390.798 1349.18 418.029C1350.19 423.272 1352.73 425.302 1357.3 427.163C1382.33 437.48 1407.02 448.136 1432.06 458.453C1438.82 461.159 1442.37 464.88 1443.05 472.999C1444.74 496.171 1447.62 519.004 1449.82 542.007C1451.34 559.09 1452.69 576.172 1454.21 593.594C1450.66 593.594 1448.29 593.594 1445.76 593.594C1445.76 598.16 1445.76 602.558 1445.76 606.617C1448.8 607.463 1451.17 607.97 1452.52 608.309C1452.52 634.694 1452.52 660.234 1452.52 686.45C1423.26 683.744 1394.85 681.545 1366.77 678.162C1357.47 676.978 1353.07 679.177 1348.84 687.634C1344.61 696.26 1337.17 703.195 1330.91 711.144C1331.76 711.313 1332.43 711.651 1333.28 711.651C1382.67 711.821 1431.89 711.99 1481.28 712.328C1486.35 712.328 1487.7 710.298 1487.53 705.732C1486.01 654.314 1491.09 602.727 1484.49 551.309Z" fill="black"/>
<path d="M47.8945 743.789C118.706 742.605 189.906 740.406 260.718 740.406C623.507 740.068 986.296 740.237 1349.09 740.406C1384.01 740.406 1418.93 740.237 1453.85 741.252C1487.41 742.098 1520.59 744.296 1554.34 746.495C1487.22 752.584 1420.09 758.673 1352.77 764.762C1352.77 765.439 1352.77 765.946 1352.77 766.623C1416.99 770.682 1481.4 774.741 1545.61 778.8C1545.61 779.139 1545.61 779.477 1545.61 779.815C1533.78 780.661 1521.75 781.845 1509.92 782.014C1402.44 783.198 1294.76 785.058 1187.29 785.228C893.562 785.566 599.839 785.566 306.115 785.059C239.183 784.889 172.252 783.029 105.32 781.845C89.2176 781.507 72.9212 780.323 56.8187 778.8C126.467 774.91 196.114 771.02 265.762 766.961C265.762 766.115 265.762 765.439 265.762 764.593C193.01 758.335 120.064 752.077 47.3125 745.819C47.7005 745.48 47.7005 744.635 47.8945 743.789Z" fill="black"/>
<path d="M639.992 679.686C641.853 663.111 643.544 647.888 645.574 631.313C646.927 631.144 649.971 630.806 652.847 630.806C695.638 630.636 738.43 630.467 781.391 630.636C784.435 630.636 787.987 633.512 790.524 635.88C792.554 637.571 793.738 640.616 794.753 643.153C799.658 655.838 807.1 663.787 822.322 660.743C824.69 660.236 829.088 663.28 830.441 665.817C832.978 670.722 835.853 673.09 841.435 672.413C846.509 671.906 851.583 671.906 856.657 672.413C859.363 672.752 861.9 675.12 864.607 675.796C867.651 676.473 871.034 676.98 874.078 676.473C877.292 675.965 880.336 673.09 883.381 673.09C916.87 672.752 950.359 672.583 984.017 672.752C987.062 672.752 989.937 675.289 992.982 676.304C995.688 677.149 1000.76 678.333 1001.27 677.318C1005.5 670.045 1012.26 672.921 1017.84 672.921C1024.95 672.921 1031.55 673.259 1032.39 663.111C1033.07 663.449 1033.91 663.618 1034.59 663.957C1034.93 669.031 1035.27 674.274 1035.6 679.686C1079.75 679.686 1123.56 679.686 1167.87 679.686C1168.38 676.134 1168.88 673.09 1169.56 667.847C1172.44 669.707 1175.31 670.384 1176.5 672.244C1184.95 685.437 1192.9 698.799 1201.19 711.992C1200.68 711.992 1198.31 712.33 1195.95 712.33C1052.52 712.33 909.09 712.33 765.661 712.161C761.095 712.161 756.19 710.808 751.961 708.947C745.534 706.241 738.768 703.365 733.356 698.968C710.015 680.194 683.291 676.811 654.707 679.686C649.464 680.025 644.39 679.686 639.992 679.686Z" fill="black"/>
<path d="M1073.65 514.442C1073.65 519.516 1073.65 523.068 1073.65 527.635C1070.27 527.973 1067.06 528.481 1063.84 528.481C898.428 528.311 733.012 528.311 567.596 528.142C482.012 528.142 396.26 528.142 310.676 528.481C305.602 528.481 299.513 531.018 295.792 534.231C282.769 545.733 271.098 558.587 257.736 569.581C254.015 572.625 246.573 570.934 240.823 571.441C240.654 570.765 240.654 570.088 240.484 569.412C252.155 557.572 264.671 546.747 274.988 533.893C287.843 518.163 303.065 513.766 323.193 513.766C570.302 514.442 817.412 514.273 1064.52 514.273C1067.23 514.442 1069.93 514.442 1073.65 514.442Z" fill="black"/>
<path d="M1311.63 342.256C1310.11 335.321 1306.89 333.799 1300.63 334.138C1293.53 334.645 1286.6 334.307 1279.49 334.307C1264.1 334.307 1248.71 334.307 1232.98 334.307C1232.98 352.912 1232.81 370.333 1233.15 387.585C1233.15 389.107 1236.02 391.644 1237.88 392.152C1267.65 400.608 1297.42 408.558 1327.7 416.846C1327.53 415.154 1327.53 413.294 1327.19 411.433C1321.95 388.431 1316.36 365.428 1311.63 342.256Z" fill="black"/>
<path d="M825.029 589.198C818.433 599.008 812.851 604.928 800.504 604.759C749.256 603.744 698.007 604.251 646.589 604.42C640.162 604.42 636.272 603.067 632.551 596.978C622.065 579.05 606.166 566.703 585.023 557.062C589.083 556.723 590.774 556.385 592.465 556.385C600.584 556.385 608.872 557.4 616.99 556.385C643.714 552.833 666.717 560.614 687.013 577.866C697.838 586.999 710.016 590.044 724.393 589.705C755.006 588.69 785.789 589.367 816.572 589.198C819.109 589.198 821.477 589.198 825.029 589.198Z" fill="black"/>
<path d="M1104.6 314.352C1104.6 324.162 1104.6 332.618 1110.18 341.075C1122.53 360.019 1128.79 380.484 1128.11 403.994C1126.76 456.765 1127.77 509.367 1127.77 562.138C1127.77 574.146 1128.45 574.823 1140.63 575.5C1142.49 575.669 1144.35 575.33 1146.72 575.161C1146.89 571.948 1147.06 569.072 1147.06 566.366C1147.22 506.83 1148.24 447.293 1146.89 387.926C1146.21 357.312 1136.4 329.743 1104.6 314.352Z" fill="black"/>
<path d="M1267.15 694.232C1232.81 694.739 1207.61 670.722 1207.1 636.894C1206.59 601.544 1231.63 576.174 1267.48 576.005C1298.27 575.836 1324.99 601.883 1324.48 633.342C1324.14 669.369 1306.22 693.217 1267.15 694.232Z" fill="black"/>
<path d="M874.078 587.164C913.487 587.164 951.881 587.164 991.29 587.164C991.29 594.775 991.29 602.725 991.29 611.351C958.478 611.351 926.003 611.351 895.389 611.351C880.674 623.19 883.042 638.751 881.182 653.128C880.844 656.172 879.829 659.217 877.461 662.261C874.078 637.736 874.078 613.042 874.078 587.164Z" fill="black"/>
<path d="M1386.55 538.964C1392.14 541.163 1397.89 543.362 1404.14 545.73C1403.64 536.934 1403.64 529.323 1402.28 521.712C1401.95 519.852 1398.06 517.991 1395.35 517.314C1354.59 505.813 1313.66 494.481 1272.73 482.98C1269.85 482.134 1266.97 481.288 1264.44 478.582C1317.38 487.546 1370.15 496.68 1424.27 505.982C1427.32 533.044 1430.36 560.106 1433.74 589.536C1423.93 584.293 1416.32 580.572 1409.39 576.174C1407.53 574.99 1406.17 571.438 1406.51 569.24C1408.04 559.937 1403.98 553.848 1396.7 548.774C1392.98 546.237 1389.77 543.023 1386.39 540.148C1386.39 539.641 1386.39 539.302 1386.55 538.964Z" fill="black"/>
<path d="M603.958 643.32C603.958 673.764 578.08 699.473 547.128 699.473C518.206 699.473 494.019 674.61 494.188 645.011C494.358 613.044 518.375 588.012 548.651 588.012C579.434 588.012 603.958 612.537 603.958 643.32Z" fill="black"/>
<path d="M437.958 643.32C437.958 673.764 412.08 699.473 381.128 699.473C352.206 699.473 328.019 674.61 328.188 645.011C328.358 613.044 352.375 588.012 382.651 588.012C413.434 588.012 437.958 612.537 437.958 643.32Z" fill="black"/>
<path d="M1073.14 556.891C1074.83 561.626 1073.48 563.994 1068.24 563.825C1065.19 563.656 1061.98 563.825 1058.94 563.825C950.35 563.994 841.933 564.164 733.346 563.994C725.735 563.994 718.124 561.457 710.344 560.104C710.513 559.089 710.513 557.905 710.682 556.891C831.446 556.891 952.041 556.891 1073.14 556.891Z" fill="black"/>
<path d="M1197.8 344.961C1197.63 401.284 1197.29 457.607 1197.12 513.929C1197.12 524.754 1199.15 526.107 1211.67 524.416C1211.67 461.497 1211.67 399.254 1211.5 337.012C1199.66 335.49 1197.8 336.504 1197.8 344.961Z" fill="black"/>
<path d="M1339.53 558.921C1338.69 558.244 1337.84 557.568 1337 556.891H1336.83C1333.28 553.339 1330.4 547.927 1326 546.574C1312.47 542.176 1298.6 538.455 1284.56 535.918C1275.6 534.396 1266.13 535.58 1257 535.411C1254.29 535.411 1251.75 534.396 1248.37 533.889C1248.2 534.227 1247.35 535.58 1246.51 537.102C1246.34 536.257 1246.17 535.58 1245.83 534.734C1240.25 535.749 1234.33 535.749 1229.09 537.779C1220.97 540.823 1213.19 545.221 1205.07 548.604C1231.46 521.711 1272.56 511.055 1312.13 525.601C1356.45 541.838 1380.47 579.048 1382.66 619.98C1378.44 609.831 1375.39 599.345 1369.98 590.381C1364.4 580.909 1356.79 572.452 1349.34 564.164C1347.48 561.966 1343.42 561.627 1340.38 560.443C1340.21 559.936 1339.87 559.428 1339.53 558.921Z" fill="black"/>
<path d="M1288.13 272.912C1257.51 260.227 1225.21 254.138 1192.4 250.924C1177.34 249.571 1162.46 248.387 1147.41 247.203C1148.08 249.064 1148.93 249.571 1149.94 249.74C1198.32 261.411 1245.51 276.464 1291.51 295.746C1297.26 298.113 1303.86 298.452 1309.95 299.636C1310.62 298.79 1311.47 297.944 1311.98 297.099C1309.78 292.532 1308.26 287.12 1304.87 283.906C1300.14 279.339 1294.22 275.449 1288.13 272.912Z" fill="black"/>
<path d="M1423.26 489.067C1423.77 480.779 1420.05 476.72 1412.1 474.352C1370.15 461.836 1328.37 448.812 1286.43 435.958C1283.21 434.943 1280 434.436 1276.62 433.759C1273.4 433.082 1270.19 432.575 1266.98 431.898C1311.8 451.857 1358.31 466.91 1403.81 489.574C1399.41 491.266 1397.55 492.111 1395.69 492.788C1395.52 493.634 1395.52 494.648 1395.35 495.494C1404.15 497.862 1413.11 500.399 1423.94 503.274C1423.6 496.847 1423.09 492.957 1423.26 489.067Z" fill="black"/>
<path d="M1141.99 595.797C1136.58 608.99 1131 612.88 1118.31 612.88C1096.33 612.88 1074.51 612.88 1051.84 612.88C1052.35 606.622 1052.69 601.717 1053.03 595.797C1082.8 595.797 1112.23 595.797 1141.99 595.797Z" fill="black"/>
<path d="M1052.84 649.581C1052.84 643.999 1052.84 638.756 1052.84 632.836C1082.61 632.836 1112.04 632.836 1141.64 632.836C1136.06 646.367 1129.29 650.934 1116.1 650.764C1095.8 650.595 1075.68 650.426 1055.38 650.426C1054.87 650.426 1054.37 650.088 1052.84 649.581Z" fill="black"/>
<path d="M1432.23 662.268C1427.49 661.761 1423.26 661.93 1419.54 660.746C1417.34 660.07 1414.81 657.194 1414.47 654.995C1413.62 649.414 1413.96 643.832 1413.62 638.251C1413.29 631.147 1416.5 622.352 1402.46 621.845C1403.48 620.999 1404.32 620.153 1405.34 619.477C1414.13 619.477 1423.1 619.477 1432.4 619.477C1432.23 634.022 1432.23 647.723 1432.23 662.268Z" fill="black"/>
<path d="M1003.8 587.508C1009.21 587.508 1014.79 587.508 1021.22 587.508C1021.22 594.442 1021.39 600.87 1021.05 607.128C1020.88 608.819 1018.68 611.525 1017.5 611.525C1010.22 611.525 1009.38 616.43 1009.21 621.674C1008.7 633.175 1008.53 644.676 1008.03 656.178C1007.86 658.545 1006.84 660.913 1006.33 663.45C1005.49 663.281 1004.64 663.281 1003.97 663.112C1003.8 638.249 1003.8 613.217 1003.8 587.508Z" fill="black"/>
<path d="M843.461 587.508C849.888 587.508 856.484 587.508 864.434 587.508C864.434 594.104 864.603 600.87 864.265 607.466C864.096 608.988 861.728 611.187 860.206 611.356C852.933 612.202 850.396 616.599 849.55 623.196C848.366 631.145 846.844 639.095 843.63 646.875C843.461 627.424 843.461 607.973 843.461 587.508Z" fill="black"/>
<path d="M1211.17 283.736C1198.14 282.552 1197.97 282.552 1197.97 294.899C1197.8 301.664 1197.8 308.43 1197.8 315.195C1197.64 328.219 1198.65 329.065 1211.67 326.358C1215.73 320.439 1207.45 310.798 1217.59 306.739C1206.6 301.495 1216.41 290.332 1211.17 283.736Z" fill="black"/>
<path d="M1322.96 306.229C1293.53 306.398 1264.27 306.059 1235.01 306.229C1232.64 306.229 1230.45 308.596 1228.08 309.78C1230.62 310.964 1232.98 313.163 1235.52 313.163C1266.3 313.332 1296.92 313.332 1328.38 313.332C1330.58 307.582 1328.04 306.398 1322.96 306.229Z" fill="black"/>
<path d="M1388.93 601.378C1388.93 596.98 1388.93 593.428 1388.93 588.523C1400.09 591.568 1410.75 594.274 1421.23 597.657C1422.59 597.995 1423.43 601.716 1423.26 603.746C1423.1 604.93 1420.05 606.621 1418.53 606.452C1408.72 605.099 1398.91 603.238 1388.93 601.378Z" fill="black"/>
<path d="M1113.91 610.001C1114.19 610.001 1114.42 550.481 1114.42 477.059C1114.42 403.637 1114.19 344.117 1113.91 344.117C1113.63 344.117 1113.41 403.637 1113.41 477.059C1113.41 550.481 1113.63 610.001 1113.91 610.001Z" fill="black"/>
<path d="M1184.1 495.157C1182.24 497.018 1180.55 500.231 1178.52 500.401C1170.57 501.077 1162.45 500.57 1154.67 500.57C1152.13 494.819 1154.33 493.297 1159.07 493.297C1166.85 493.466 1174.63 493.297 1182.41 493.297C1182.91 494.143 1183.59 494.65 1184.1 495.157Z" fill="black"/>
<path d="M1339.53 558.922C1339.87 559.429 1340.21 559.937 1340.55 560.444C1340.04 559.937 1339.87 559.429 1339.53 558.922Z" fill="black"/>
<path d="M384.25 620.318C380.19 622.855 376.469 626.238 372.241 627.253C370.38 627.76 365.306 623.363 365.137 621.164C364.968 615.244 369.873 612.2 375.454 612.707C378.33 612.876 381.036 615.244 383.911 616.766C383.911 617.95 384.08 619.134 384.25 620.318Z" fill="black"/>
<path d="M372.421 661.418C376.988 665.816 380.201 668.86 383.415 671.735C380.709 674.442 377.157 679.685 375.296 679.177C371.575 677.993 368.023 674.272 365.825 670.721C365.317 669.537 369.376 665.646 372.421 661.418Z" fill="black"/>
<path d="M407.247 619.64C402.342 623.699 398.621 628.266 397.099 627.758C393.209 626.236 390.503 622.177 387.289 619.301C389.826 616.933 392.532 612.367 394.731 612.536C398.283 612.536 401.666 616.088 407.247 619.64Z" fill="black"/>
<path d="M421.967 637.233C416.385 640.785 412.833 644.844 410.296 644.337C407.252 643.66 403.023 638.924 403.192 636.218C403.362 633.343 407.928 629.114 410.973 628.776C413.679 628.438 416.723 632.835 421.967 637.233Z" fill="black"/>
<path d="M369.02 635.88C363.607 639.77 360.563 643.322 357.18 643.998C355.489 644.337 350.584 638.417 351.091 636.556C352.106 633.174 355.658 629.622 359.21 628.269C360.563 627.592 364.115 631.99 369.02 635.88Z" fill="black"/>
<path d="M368.689 657.867C363.614 661.08 360.063 664.801 358.371 663.956C355.158 662.602 352.113 659.051 350.76 655.668C350.253 654.484 355.665 649.071 357.525 649.41C360.908 650.086 363.614 653.807 368.689 657.867Z" fill="black"/>
<path d="M409.955 646.703C413.507 651.439 417.736 654.822 417.059 656.513C415.706 660.065 411.985 662.602 409.279 665.647C407.08 663.279 402.851 660.742 403.021 658.543C403.19 655.16 406.572 651.946 409.955 646.703Z" fill="black"/>
<path d="M404.541 673.088C401.497 675.286 398.114 679.346 395.239 679.007C392.363 678.669 389.995 674.102 387.289 671.396C389.995 669.197 392.532 665.646 395.408 665.307C398.114 664.969 401.327 668.013 404.203 669.536C404.372 670.889 404.541 672.073 404.541 673.088Z" fill="black"/>
<path d="M1304.86 231.473C1305.2 231.642 1305.71 231.98 1306.38 232.318C1306.38 231.98 1306.38 231.811 1306.21 231.473C1305.71 231.473 1305.37 231.473 1304.86 231.473Z" fill="black"/>
</svg>
