<svg xmlns="http://www.w3.org/2000/svg" width="36.382" height="35.849" viewBox="0 0 36.382 35.849">
  <g id="export-01" transform="translate(72.015 -32.922) rotate(90)" opacity="0.6">
    <path id="Path_166" data-name="Path 166" d="M55.924,53.845a3.3,3.3,0,0,1-1.07,2.44q-6.986,6.976-13.969,13.959c-.3.3-.6.617-.916.9a3.222,3.222,0,0,1-4.437,0c-.592-.53-1.16-1.107-1.7-1.7a3.235,3.235,0,0,1,.136-4.624q5.319-5.333,10.659-10.647c.279-.279.267-.417,0-.688Q39.364,48.268,34.121,43a3.285,3.285,0,0,1-.012-5.059c.414-.416.826-.835,1.238-1.238a3.254,3.254,0,0,1,4.785-.011q7.4,7.376,14.785,14.776a3.211,3.211,0,0,1,1.008,2.375ZM37.767,70.682a2.1,2.1,0,0,0,1.556-.75Q46.589,62.66,53.86,55.394a1.982,1.982,0,0,0,0-3.11q-2.486-2.492-4.976-4.978-4.808-4.8-9.6-9.588a1.964,1.964,0,0,0-3.079.019c-.394.4-.792.787-1.187,1.183a1.972,1.972,0,0,0,.014,3.107L46.112,53.1c.631.631.63.845-.009,1.484l-11.14,11.14a1.941,1.941,0,0,0,0,2.983q.679.688,1.365,1.365A1.917,1.917,0,0,0,37.767,70.682Z" transform="translate(0 -0.018)"/>
    <path id="Path_167" data-name="Path 167" d="M155.3,76.967a1.8,1.8,0,0,1-1.317-.53c-.541-.53-1.086-1.061-1.607-1.609a1.912,1.912,0,0,1-.055-2.612c.15-.177.318-.329.481-.492L163.573,60.95c.746-.746.748-.9.014-1.636L152.6,48.328a1.969,1.969,0,0,1,0-3.135l1.153-1.153a2,2,0,0,1,3.117-.011l10.079,10.079q2.247,2.246,4.491,4.493a1.961,1.961,0,0,1,0,3.05Q164.127,68.964,156.8,76.28A1.993,1.993,0,0,1,155.3,76.967Z" transform="translate(-103.397 -6.303)"/>
    <path id="Path_168" data-name="Path 168" d="M44.027,76.886a1.917,1.917,0,0,1-1.436-.608q-.684-.679-1.365-1.365a1.941,1.941,0,0,1,0-2.983q5.568-5.572,11.14-11.14c.638-.638.64-.852.009-1.484L41.294,48.231a1.972,1.972,0,0,1-.014-3.107c.394-.4.792-.787,1.187-1.183a1.964,1.964,0,0,1,3.079-.019l9.593,9.588,4.976,4.978a1.973,1.973,0,0,1,0,3.11q-7.268,7.271-14.537,14.539A2.083,2.083,0,0,1,44.027,76.886Z" transform="translate(-6.26 -6.222)" fill="#fefefe"/>
  </g>
</svg>
