<svg xmlns="http://www.w3.org/2000/svg" width="32.76" height="35" viewBox="0 0 32.76 35">
  <path id="leaves" d="M195.616,148.416h0a2.042,2.042,0,0,0-2.005-1.713h-.02a26.7,26.7,0,0,0-16.814,6.192,12.949,12.949,0,0,0-6.284-10.032h0a2,2,0,0,0-2.5.332h0a17.13,17.13,0,0,0,.044,23.5,25.827,25.827,0,0,0-.629,3.25.833.833,0,0,0,.717.932.792.792,0,0,0,.107,0,.826.826,0,0,0,.82-.722,24.488,24.488,0,0,1,.678-3.357.736.736,0,0,0,.063-.224,25.185,25.185,0,0,1,23.825-18.214h0a.39.39,0,0,1,.371.312h0a38.522,38.522,0,0,1,.059,11.7.59.59,0,0,0-.024.088,17.691,17.691,0,0,1-21.551,13.14,40.586,40.586,0,0,0,12.866-13.667.829.829,0,1,0-1.439-.825,39.351,39.351,0,0,1-13.823,14.018.489.489,0,0,0-.068.039,38.919,38.919,0,0,1-5.728,2.806.829.829,0,0,0,.3,1.6.814.814,0,0,0,.3-.059,40.617,40.617,0,0,0,5.679-2.747,19.346,19.346,0,0,0,25.016-13.774.815.815,0,0,0,.063-.22A40.037,40.037,0,0,0,195.616,148.416Zm-23.932,10.129c-.01-.888-.049-1.713-.117-2.5a42.438,42.438,0,0,0-.878-5.44.83.83,0,0,0-1.62.361,39.96,39.96,0,0,1,.844,5.226,37.464,37.464,0,0,1,.039,5.343,26.287,26.287,0,0,0-1.366,3.293,15.392,15.392,0,0,1,.61-20.5h0a.357.357,0,0,1,.444-.044h0a11.262,11.262,0,0,1,5.518,10.071A26.551,26.551,0,0,0,171.683,158.545Z" transform="translate(-163.352 -142.569)" fill="#d6d6d6"/>
</svg>
