<svg xmlns="http://www.w3.org/2000/svg" width="20.934" height="35" viewBox="0 0 20.934 35">
  <path id="_14-Power" data-name="14-Power" d="M251.9,95.013a.768.768,0,0,0-.674-.407h-7.773l3.281-9.595v0a.78.78,0,0,0-.11-.694A.789.789,0,0,0,246,84h-7.868a.769.769,0,0,0-.722.509s0,0,0,.01L231.09,103.18v0a.8.8,0,0,0,.072.636.76.76,0,0,0,.488.349.63.63,0,0,0,.163.019h6.017l-2.612,13.9a.776.776,0,0,0,.2.674.765.765,0,0,0,.607.234.776.776,0,0,0,.579-.34L251.853,95.8A.748.748,0,0,0,251.9,95.013Zm-14.483,19.673,2.1-11.121a.772.772,0,0,0-.163-.631.761.761,0,0,0-.588-.277h-5.878l5.8-17.126h6.252l-3.281,9.6a.765.765,0,0,0,.722,1.014h7.419Z" transform="translate(-231.054 -84)" fill="#fff"/>
</svg>
