<svg xmlns="http://www.w3.org/2000/svg" width="49.941" height="50" viewBox="0 0 49.941 50">
  <g id="log_out-01" data-name="log out-01" transform="translate(-35.06 -41.373)">
    <path id="Path_222" data-name="Path 222" d="M42,91.373a16.384,16.384,0,0,1-2.53-.815A7.6,7.6,0,0,1,35.083,83.8c-.044-.783-.013-1.565-.013-2.343V49.378a7.73,7.73,0,0,1,5.27-7.545,8.412,8.412,0,0,1,2.628-.433c6.477-.036,12.956-.03,19.433-.016a7.811,7.811,0,0,1,7.923,7.923q.01,1.806,0,3.612a1.96,1.96,0,1,1-3.9-.02v-3.32a3.958,3.958,0,0,0-4.276-4.3H51.6c-2.848,0-5.7-.007-8.544,0a3.862,3.862,0,0,0-3.918,2.9,4.728,4.728,0,0,0-.152,1.253q-.012,16.941,0,33.881a3.921,3.921,0,0,0,4.133,4.143q9.594.009,19.189,0a3.918,3.918,0,0,0,4.117-4.108c.006-1.174,0-2.348,0-3.515a1.958,1.958,0,1,1,3.9,0,45.964,45.964,0,0,1-.107,4.776,7.675,7.675,0,0,1-6.554,6.661,1.536,1.536,0,0,0-.266.093Z" transform="translate(0 0)" fill="#7d7d7d"/>
    <path id="Path_223" data-name="Path 223" d="M256.326,218.432c-1.107-1.1-2.112-2.073-3.089-3.072a1.934,1.934,0,0,1-.107-2.725,1.865,1.865,0,0,1,2.673-.176c1.639,1.58,3.261,3.182,4.82,4.841a4.229,4.229,0,0,1,1.053,2.808,5.059,5.059,0,0,1-1.7,4.078c-1.349,1.3-2.646,2.647-3.978,3.961a1.946,1.946,0,1,1-2.778-2.724c.863-.9,1.767-1.775,2.652-2.663.111-.112.213-.229.391-.422H233.113A2.009,2.009,0,0,1,231,221.016a1.948,1.948,0,0,1,1.7-2.573c.2-.016.391-.01.587-.01h23.033Z" transform="translate(-176.683 -153.913)" fill="#7d7d7d"/>
  </g>
</svg>
