<svg id="log_out-01" data-name="log out-01" xmlns="http://www.w3.org/2000/svg" width="49.938" height="50" viewBox="0 0 49.938 50">
  <path id="Path_184" data-name="Path 184" d="M44.512,86.763A14.689,14.689,0,0,1,42.1,85.95a7.625,7.625,0,0,1-4.189-6.763c-.042-.781-.012-1.562-.012-2.344V44.769A7.546,7.546,0,0,1,45.433,36.8q9.268-.052,18.537-.016a7.632,7.632,0,0,1,7.554,7.926q.009,1.8,0,3.612A1.879,1.879,0,1,1,67.8,48.3V44.979c0-2.671-1.544-4.3-4.077-4.3H53.662c-2.717,0-5.434-.008-8.151,0a3.7,3.7,0,0,0-3.736,2.9,4.924,4.924,0,0,0-.148,1.251q-.011,16.941,0,33.881a3.836,3.836,0,0,0,3.942,4.143q9.152.008,18.3,0A3.834,3.834,0,0,0,67.8,78.748c.006-1.172,0-2.344,0-3.516a1.878,1.878,0,1,1,3.721,0c-.011,1.592.067,3.2-.1,4.776a7.512,7.512,0,0,1-6.253,6.661,1.464,1.464,0,0,0-.248.092Z" transform="translate(-37.888 -36.765)" fill="#3683ff"/>
  <path id="Path_185" data-name="Path 185" d="M213.251,172.114c-1.231-1.222-2.346-2.3-3.433-3.414a2.149,2.149,0,0,1-.117-3.028,2.072,2.072,0,0,1,2.97-.2c1.821,1.756,3.616,3.535,5.352,5.378a4.7,4.7,0,0,1,1.17,3.12,5.626,5.626,0,0,1-1.88,4.531c-1.5,1.447-2.939,2.941-4.421,4.4a2.162,2.162,0,1,1-3.085-3.026c.958-1,1.963-1.973,2.947-2.96.122-.123.237-.253.434-.467H187.46a2.23,2.23,0,0,1-2.342-1.47,2.161,2.161,0,0,1,1.891-2.857c.216-.019.434-.012.651-.012h25.591Z" transform="translate(-169.262 -149.186)" fill="#3683ff"/>
</svg>
