<svg xmlns="http://www.w3.org/2000/svg" width="27.442" height="35" viewBox="0 0 27.442 35">
  <g id="Medal" transform="translate(-6.91 -0.001)">
    <path id="Path_6" data-name="Path 6" d="M34.317,31.536,30.363,21.142a3.384,3.384,0,0,0,1-.911A3.328,3.328,0,0,0,31.9,17.45a2.261,2.261,0,0,1,.762-2.291,3.337,3.337,0,0,0-.006-5.166A2.261,2.261,0,0,1,31.9,7.7a3.325,3.325,0,0,0-.535-2.775,3.411,3.411,0,0,0-2.542-1.4,2.326,2.326,0,0,1-1.988-1.42A3.385,3.385,0,0,0,24.739.171a3.439,3.439,0,0,0-2.875.342,2.364,2.364,0,0,1-2.465,0A3.439,3.439,0,0,0,16.523.171a3.385,3.385,0,0,0-2.092,1.936,2.328,2.328,0,0,1-1.994,1.421A3.407,3.407,0,0,0,9.9,4.926a3.328,3.328,0,0,0-.534,2.781A2.262,2.262,0,0,1,8.606,10a3.337,3.337,0,0,0,.006,5.166,2.261,2.261,0,0,1,.753,2.292A3.325,3.325,0,0,0,9.9,20.231a3.385,3.385,0,0,0,1,.911L6.946,31.536a.547.547,0,0,0,.7.709L11.947,30.7l2.188,4.018a.547.547,0,0,0,.48.285h.037a.547.547,0,0,0,.474-.351l3.7-9.726a3.443,3.443,0,0,0,.571-.279,2.364,2.364,0,0,1,2.464,0h0a3.437,3.437,0,0,0,.57.275l3.7,9.729A.547.547,0,0,0,26.61,35h.037a.547.547,0,0,0,.48-.285L29.315,30.7l4.306,1.548a.547.547,0,0,0,.7-.709ZM14.527,33.148l-1.844-3.385a.547.547,0,0,0-.665-.253l-3.628,1.3,3.524-9.265a3.489,3.489,0,0,0,.528.082,2.326,2.326,0,0,1,1.988,1.42,3.385,3.385,0,0,0,2.092,1.936,3.457,3.457,0,0,0,1.046.167Zm4.3-9.435a2.344,2.344,0,0,1-1.962.233,2.293,2.293,0,0,1-1.418-1.31,3.428,3.428,0,0,0-2.932-2.1,2.317,2.317,0,0,1-1.726-.949,2.236,2.236,0,0,1-.358-1.87,3.361,3.361,0,0,0-1.126-3.4,2.243,2.243,0,0,1,.006-3.48,3.361,3.361,0,0,0,1.118-3.4,2.233,2.233,0,0,1,.36-1.864,2.321,2.321,0,0,1,1.731-.95,3.426,3.426,0,0,0,2.926-2.1,2.291,2.291,0,0,1,1.418-1.31,2.347,2.347,0,0,1,1.962.233,3.467,3.467,0,0,0,3.614,0A2.346,2.346,0,0,1,24.4,1.211a2.293,2.293,0,0,1,1.418,1.31,3.428,3.428,0,0,0,2.932,2.1,2.317,2.317,0,0,1,1.726.949,2.236,2.236,0,0,1,.358,1.87,3.361,3.361,0,0,0,1.126,3.4,2.243,2.243,0,0,1-.006,3.48,3.361,3.361,0,0,0-1.118,3.4,2.233,2.233,0,0,1-.36,1.864,2.321,2.321,0,0,1-1.731.95,3.426,3.426,0,0,0-2.926,2.1,2.291,2.291,0,0,1-1.418,1.31,2.342,2.342,0,0,1-1.962-.233,3.467,3.467,0,0,0-3.614,0Zm10.42,5.8a.547.547,0,0,0-.665.253l-1.844,3.385-3.042-7.993a3.459,3.459,0,0,0,1.045-.168,3.387,3.387,0,0,0,2.093-1.936,2.326,2.326,0,0,1,1.993-1.421,3.458,3.458,0,0,0,.523-.081l3.524,9.265Z" fill="#fff"/>
    <path id="Path_8" data-name="Path 8" d="M39.953,19.684l-4.876-.708L32.9,14.558a1.041,1.041,0,0,0-1.793,0l-2.181,4.418-4.876.708a1,1,0,0,0-.555,1.706l3.529,3.439-.833,4.856a1,1,0,0,0,1.45,1.054L32,28.447l4.361,2.292a1,1,0,0,0,1.45-1.054l-.833-4.856,3.529-3.439a1,1,0,0,0-.555-1.706Zm-4.747,4.08a1,1,0,0,0-.287.885l.579,3.377-3.033-1.594a1,1,0,0,0-.93,0L28.5,28.026l.579-3.377a1,1,0,0,0-.287-.885L26.34,21.372l3.391-.493a1,1,0,0,0,.753-.547L32,17.26l1.517,3.072a1,1,0,0,0,.753.547l3.391.493Z" transform="translate(-11.368 -9.631)" fill="#fff"/>
  </g>
</svg>
