<svg xmlns="http://www.w3.org/2000/svg" width="48.004" height="50.502" viewBox="0 0 48.004 50.502">
  <g id="building-01" transform="translate(-108.2 -98.353)">
    <path id="Path_195" data-name="Path 195" d="M112.248,143.554V110.137c0-.953.095-1.08,1.005-1.3l20.74-5.1c.832-.2,1.2.085,1.206.939v6.519H137v-2.156q0-4.778.008-9.558c0-.687.423-.994,1.1-.824q6.627,1.636,13.253,3.285c.659.165.8.383.8,1.163v40.455h2.747c.784,0,1.045.262,1.048,1.048v2.884c0,.89-.229,1.118-1.126,1.118h-45.3c-.824,0-1.074-.247-1.075-1.066v-2.982c0-.72.275-1,.993-1C110.352,143.551,111.26,143.554,112.248,143.554Zm32.587-30.7H127.472v30.56h17.363Zm-30.966-.876h8.791c.824,0,1.064.24,1.067,1.075v2.674c0,.847-.251,1.086-1.115,1.086h-8.227c-.18,0-.36.016-.538.025v1.236h8.806c.817,0,1.073.257,1.077,1.08v2.673c0,.865-.228,1.085-1.108,1.086h-8.758v1.277h8.624c1.067,0,1.236.179,1.243,1.266v2.417c0,.929-.233,1.163-1.15,1.163h-8.723v1.253h8.727c.916,0,1.143.231,1.146,1.162v2.571c0,.857-.238,1.107-1.091,1.107h-8.784v1.261h8.725c.92,0,1.147.234,1.15,1.166v2.519c0,.961-.218,1.17-1.192,1.17h-8.689v2.279h11.984V112.4c0-.99.21-1.2,1.207-1.2H133c.2,0,.4-.018.613-.029v-5.695c-.176.036-.323.06-.468.1L115.156,110c-1.4.345-1.4.343-1.325,1.786C113.825,111.817,113.838,111.845,113.869,111.974Zm36.7-2.545h-1.9c-.654-.008-.927-.284-.933-.946v-2.261c0-.852.251-1.1,1.1-1.108h1.732v-1.749l-11.95-2.964v4.714h6.815c.78,0,1.048.275,1.053,1.058v2.21c0,.793-.257,1.048-1.044,1.049h-6.821V111.2h6.662c.986,0,1.221.234,1.221,1.2v31.111h4.052v-5.424c-.655,0-1.284.01-1.912,0s-.905-.308-.912-.929c-.01-.8-.007-1.61,0-2.415,0-.687.275-.961.961-.971.611-.007,1.222,0,1.854,0V132.4c-.648,0-1.262.012-1.876,0-.659-.016-.934-.3-.941-.952-.007-.754,0-1.511,0-2.262,0-.86.236-1.1,1.1-1.1h1.717V126.6h-1.677c-.9,0-1.133-.227-1.135-1.111v-2.107c0-.85.251-1.1,1.1-1.1h1.721v-1.358h-1.813c-.724,0-1.007-.275-1.011-.982q-.008-1.183,0-2.364c0-.687.275-.961.961-.961h1.852V115.24c-.647,0-1.261.01-1.875,0-.658-.015-.937-.3-.944-.95-.007-.772,0-1.542,0-2.314,0-.794.25-1.044,1.041-1.049h1.786Zm3.773,35.734H110.072v1.856H154.34Zm-40.467-29.969h8.23v-1.614h-8.23Zm8.241,16.7h-8.232v1.632h8.23Zm-8.241-10.59H122.1V119.7h-8.222Zm8.219,6.1v-1.621h-8.21v1.621Zm.023,10.6h-8.233v1.6h8.241Zm16.491-30.179h6.25v-1.091h-6.25Zm11.922,10.374h-1.174v1.1h1.174Zm0-11.457h-1.177v1.085h1.177Zm0,5.781h-1.174v1.077h1.174Zm0,17.169h-1.174v1.074h1.174Zm-1.169-4.7h1.147v-1.1c-1.258-.124-1.3-.078-1.146,1.1Zm-.019,11.459h1.172v-1.1H149.34Z" transform="translate(0 0)" fill="#3179ec" stroke="#327aee" stroke-width="0.5"/>
    <path id="Path_196" data-name="Path 196" d="M316.289,276.754c0-.633-.011-1.266,0-1.9a.794.794,0,0,1,.891-.89q1.9-.021,3.8,0a.807.807,0,0,1,.886.9q.016,1.9,0,3.8a.8.8,0,0,1-.9.88q-1.9.018-3.8,0c-.6-.007-.864-.286-.876-.9C316.28,278.019,316.289,277.387,316.289,276.754Zm3.965-1.159H317.9v2.335h2.35Z" transform="translate(-179.288 -151.265)" fill="#3179ec" stroke="#327aee" stroke-width="0.5"/>
    <path id="Path_197" data-name="Path 197" d="M269.707,276.759c0,.632.007,1.265,0,1.9-.008.6-.275.88-.883.886q-1.9.018-3.8,0a.789.789,0,0,1-.886-.89q-.012-1.9,0-3.8a.8.8,0,0,1,.889-.894q1.9-.025,3.8,0c.6,0,.871.3.879.9C269.714,275.492,269.707,276.126,269.707,276.759Zm-1.593-1.167h-2.378v2.335h2.378Z" transform="translate(-134.301 -151.261)" fill="#3179ec" stroke="#327aee" stroke-width="0.5"/>
    <path id="Path_198" data-name="Path 198" d="M319.094,226.827h-1.846c-.666,0-.955-.275-.961-.922q-.014-1.872,0-3.746c0-.637.275-.9.911-.9q1.872-.011,3.746,0a.8.8,0,0,1,.918.908q.014,1.871,0,3.744a.814.814,0,0,1-.92.918C320.324,226.836,319.711,226.827,319.094,226.827Zm-1.213-3.983v2.4c.718,0,1.418.011,2.115-.012a.389.389,0,0,0,.275-.265c.022-.7.012-1.394.012-2.117Z" transform="translate(-179.284 -105.8)" fill="#3179ec" stroke="#327aee" stroke-width="0.5"/>
    <path id="Path_199" data-name="Path 199" d="M319.085,333.3c-.65,0-1.3.011-1.949,0a.75.75,0,0,1-.839-.824q-.023-1.949,0-3.9a.769.769,0,0,1,.872-.845q1.9-.012,3.8,0a.793.793,0,0,1,.9.876q.018,1.9,0,3.8a.79.79,0,0,1-.883.893C320.351,333.309,319.718,333.3,319.085,333.3Zm1.163-1.593v-2.364h-2.354v2.364Z" transform="translate(-179.288 -197.65)" fill="#3179ec" stroke="#327aee" stroke-width="0.5"/>
    <path id="Path_200" data-name="Path 200" d="M266.941,226.835h-1.9a.8.8,0,0,1-.922-.909q-.012-1.9,0-3.8a.764.764,0,0,1,.85-.863q1.923-.014,3.846,0a.754.754,0,0,1,.864.845q.016,1.923,0,3.846c0,.585-.3.865-.9.876S267.556,226.835,266.941,226.835Zm-1.221-3.983v2.368h2.362v-2.371Z" transform="translate(-134.284 -105.808)" fill="#3179ec" stroke="#327aee" stroke-width="0.5"/>
    <path id="Path_201" data-name="Path 201" d="M264.123,330.549v-1.8c0-.7.275-.977.95-.979q1.846-.008,3.693,0c.635,0,.919.275.923.9q.012,1.9,0,3.8c0,.592-.288.868-.893.872q-1.9.012-3.8,0c-.592,0-.868-.294-.876-.893C264.116,331.81,264.123,331.178,264.123,330.549Zm3.983-1.163h-2.384v2.358h2.383Z" transform="translate(-134.289 -197.689)" fill="#3179ec" stroke="#327aee" stroke-width="0.5"/>
  </g>
</svg>
