<svg xmlns="http://www.w3.org/2000/svg" width="41.044" height="29.793" viewBox="0 0 41.044 29.793">
  <g id="Group_419" data-name="Group 419" transform="translate(0 0)">
    <g id="Group_411" data-name="Group 411" transform="translate(0 0)">
      <path id="Path_163" data-name="Path 163" d="M52.15,85.25,47.411,88c-.98.569-1.958,1.143-2.942,1.706A4.239,4.239,0,0,1,38,85.957V72.694a1.407,1.407,0,0,1,2.772-.431,2.593,2.593,0,0,1,.046.613V85.962a1.412,1.412,0,0,0,1.763,1.486,1.968,1.968,0,0,0,.483-.211q9.08-5.252,18.156-10.514a1.423,1.423,0,0,0-.018-2.607q-9.038-5.239-18.063-10.48A1.477,1.477,0,0,0,40.8,64.864a1.357,1.357,0,0,1-1.431,1.314A1.418,1.418,0,0,1,38,64.73a4.233,4.233,0,0,1,6.344-3.639c2.171,1.216,4.312,2.484,6.465,3.731q5.945,3.441,11.884,6.889a4.224,4.224,0,0,1,.483,7.112c-.665.481-1.406.86-2.118,1.275q-2.881,1.679-5.773,3.339a.537.537,0,0,0-.309.558c.02.649,0,1.3,0,1.946a1.417,1.417,0,0,0,2.239,1.288q4.35-2.5,8.681-5.016c.32-.179.637-.372.957-.554A1.425,1.425,0,1,1,68.293,84.1q-3.9,2.266-7.794,4.521c-.637.37-1.27.746-1.91,1.109A4.249,4.249,0,0,1,52.15,86C52.149,85.776,52.15,85.556,52.15,85.25Z" transform="translate(-37.998 -60.534)" fill="#0766ad"/>
      <path id="Path_164" data-name="Path 164" d="M163.493,77.458a4,4,0,0,1-1.967,3.282c-1.431.894-2.915,1.72-4.387,2.559a1.423,1.423,0,1,1-1.4-2.479c1.331-.787,2.67-1.559,4-2.341a1.44,1.44,0,0,0-.016-2.693L141.78,65.36a2.225,2.225,0,0,1-.807-.828,1.316,1.316,0,0,1,.392-1.593,1.431,1.431,0,0,1,1.69-.1q2.624,1.508,5.237,3.03l12.727,7.37A4.586,4.586,0,0,1,163.493,77.458Z" transform="translate(-122.449 -62.236)" fill="#0766ad"/>
    </g>
    <text id="_4" data-name="4" transform="translate(8.455 17.23)" fill="#0766ad" font-size="9" font-family="Volte-Medium, Volte" font-weight="500"><tspan x="0" y="0">4</tspan></text>
  </g>
</svg>
