<svg id="print-01" xmlns="http://www.w3.org/2000/svg" width="50.007" height="50" viewBox="0 0 50.007 50">
  <path id="Path_188" data-name="Path 188" d="M80.778,63.59H100.5a.77.77,0,0,0,.169.08,7.3,7.3,0,0,1,6.275,7.475v5.044c.563,0,1.065-.007,1.568,0a7.3,7.3,0,0,1,7.11,7.089q.063,6.074,0,12.155a7.26,7.26,0,0,1-6.266,7.025c-.782.1-1.579.091-2.413.136v6.447a4.392,4.392,0,0,1-4.557,4.549H78.908a4.384,4.384,0,0,1-4.567-4.582v-6.463H72.962a7.343,7.343,0,0,1-7.072-5.461c-.087-.326-.161-.656-.24-.983V82.631a1.62,1.62,0,0,0,.09-.267,7.278,7.278,0,0,1,6.236-6.092c.765-.1,1.545-.085,2.357-.125v-.533c0-1.593-.01-3.185,0-4.776a7.344,7.344,0,0,1,5.512-7.023C80.153,63.734,80.465,63.665,80.778,63.59ZM74.311,94.736c-.331,0-.623.012-.913,0a1.46,1.46,0,0,1-.231-2.892,3.343,3.343,0,0,1,.632-.032h34.022a1.463,1.463,0,0,1,.016,2.924c-.287.012-.575,0-.884,0V99.62H108.3a4.389,4.389,0,0,0,4.42-4.4q.027-5.858,0-11.715a4.348,4.348,0,0,0-4.38-4.389q-17.694-.021-35.388,0a4.351,4.351,0,0,0-4.37,4.384c-.018,3.906-.024,7.808.013,11.715a4.872,4.872,0,0,0,.426,1.878,4.675,4.675,0,0,0,5.295,2.465Zm2.947.018V108.9c0,1.2.552,1.752,1.768,1.752h23.229c1.21,0,1.768-.55,1.768-1.752V94.748Zm26.761-18.581v-5.12a4.386,4.386,0,0,0-4.524-4.529q-8.857-.012-17.712,0a4.387,4.387,0,0,0-4.517,4.536v4.684c0,.147.018.28.028.429Z" transform="translate(-65.65 -63.59)" fill="#7f7f7f"/>
  <path id="Path_189" data-name="Path 189" d="M112.427,194.394h-2.2a1.439,1.439,0,1,1,.023-2.87q2.17-.009,4.351,0a1.443,1.443,0,1,1-.029,2.874C113.862,194.4,113.145,194.394,112.427,194.394Z" transform="translate(-102.464 -172.651)" fill="#7f7f7f"/>
  <path id="Path_190" data-name="Path 190" d="M204.127,297.549h3.684a1.459,1.459,0,0,1,1.591,1.425,1.443,1.443,0,0,1-1.562,1.447h-7.416a1.443,1.443,0,1,1,.027-2.873C201.67,297.546,202.9,297.549,204.127,297.549Z" transform="translate(-179.137 -263.04)" fill="#7f7f7f"/>
  <path id="Path_191" data-name="Path 191" d="M204.126,340h3.684a1.442,1.442,0,1,1,.029,2.871h-7.418a1.442,1.442,0,1,1,.029-2.871Z" transform="translate(-179.137 -299.109)" fill="#7f7f7f"/>
</svg>
