<svg xmlns="http://www.w3.org/2000/svg" width="50.155" height="50" viewBox="0 0 50.155 50">
  <path id="REVERT-01" d="M109.927,144.7h4.631a2.32,2.32,0,0,1,2.37,2.14,2.367,2.367,0,0,1-1.611,2.719,4.5,4.5,0,0,1-1.215.141c-2.793.013-5.587,0-8.38.009a3.55,3.55,0,0,0-.939.055c-1.669.47-3-1.232-2.974-2.628.063-3.179.1-6.359.144-9.538a5.716,5.716,0,0,1,.061-1.05,2.352,2.352,0,0,1,2.679-1.83,2.241,2.241,0,0,1,2.21,2.153c.05,1.213.011,2.412.011,3.793.258-.244.4-.38.545-.518a39.9,39.9,0,0,1,5.924-5.218,23.965,23.965,0,0,1,13.739-3.961,25.011,25.011,0,1,1-15.857,44.571,25.655,25.655,0,0,1-2.01-1.794,2.463,2.463,0,0,1,3.361-3.6,21.953,21.953,0,0,0,8.469,4.945,20,20,0,1,0,8.859-38.894c-7.059-1.033-13.08,1.252-18.047,6.339C111.256,143.2,110.65,143.9,109.927,144.7Z" transform="translate(-101.808 -130.963)" fill="#7f7f7f"/>
</svg>
