<svg xmlns="http://www.w3.org/2000/svg" width="45.852" height="50" viewBox="0 0 45.852 50">
  <path id="SAVE-01" d="M92.13,141.314v-39.84a1.8,1.8,0,0,0,.086-.261,5.519,5.519,0,0,1,2.223-3.723A14.4,14.4,0,0,1,96.787,96.4h33.045c.1.13.2.279.311.4q3.779,4.129,7.556,8.259a1.1,1.1,0,0,1,.27.661q.019,17.425.007,34.852a5.6,5.6,0,0,1-5.288,5.814q-17.637.024-35.275,0a5.055,5.055,0,0,1-4.2-2.325A7.619,7.619,0,0,1,92.13,141.314Zm6.9,1.155V125.559c0-3.587,2.317-6.12,5.6-6.12h20.909c3.343,0,5.639,2.515,5.639,6.174v16.87h1.2c1.306,0,2.023-.783,2.023-2.2q0-16.429.007-32.857a1.08,1.08,0,0,0-.313-.8c-1.823-1.971-3.644-3.945-5.443-5.941a.93.93,0,0,0-1.056-.335v9.163c0,3.45-2.351,6.013-5.518,6.015H108.146c-3.2,0-5.539-2.556-5.542-6.036V100.3H97.857c-1.491,0-2.153.72-2.153,2.348v37.934a1.864,1.864,0,0,0,1.536,1.869,15.607,15.607,0,0,0,1.786.016Zm3.582-.018h24.985V125.573c0-1.46-.7-2.229-2.034-2.229H104.645c-1.334,0-2.034.77-2.034,2.231V142.45Zm3.582-42.125v9.1c0,1.425.718,2.2,2.015,2.2h13.787c1.3,0,2.018-.783,2.019-2.2v-9.1h-3.589v7.361h-3.589v-7.361Z" transform="translate(-92.13 -96.4)" fill="#3683ff"/>
</svg>
