<svg xmlns="http://www.w3.org/2000/svg" width="50" height="50" viewBox="0 0 50 50">
  <g id="EXPORT-01" transform="translate(-99.16 -97.92)">
    <path id="Path_217" data-name="Path 217" d="M121.7,184.144c-4.767,0-9.534.013-14.3,0a8.074,8.074,0,0,1-8.233-8.236q-.007-14.273,0-28.541a8.04,8.04,0,0,1,6.625-8.074,7.836,7.836,0,0,1,1.512-.15q7.679-.016,15.362,0a2.5,2.5,0,1,1,.059,5q-5.069.01-10.14,0h-5.158a3.114,3.114,0,0,0-3.276,3.225q-.021,14.273,0,28.539a3.106,3.106,0,0,0,3.266,3.245q14.243.018,28.486,0a3.114,3.114,0,0,0,3.266-3.295q.009-8.82.006-17.64a2.485,2.485,0,0,1,3.475-2.4,2.528,2.528,0,0,1,1.534,2.54v9.845c0,2.56.012,5.118,0,7.677a8.118,8.118,0,0,1-6.949,8.171,9.523,9.523,0,0,1-1.572.082Q128.673,184.15,121.7,184.144Z" transform="translate(0 -36.23)" fill="#3683ff"/>
    <path id="Path_218" data-name="Path 218" d="M289.055,106.487a4.066,4.066,0,0,1-.405.573q-9.961,9.972-19.929,19.937a2.579,2.579,0,0,1-2.579.872,2.482,2.482,0,0,1-1.32-4.035c.149-.179.322-.34.484-.506q9.909-9.905,19.816-19.8a5.616,5.616,0,0,1,.548-.431c-.031-.063-.064-.121-.1-.189h-.6c-2.755,0-5.51.008-8.264-.01a2.313,2.313,0,0,1-2.239-1.513,2.375,2.375,0,0,1,.428-2.624,2.467,2.467,0,0,1,1.981-.838c2.364.01,4.728,0,7.092,0h7.561a2.478,2.478,0,0,1,2.725,2.725q.007,7.354,0,14.709a2.461,2.461,0,0,1-1.851,2.476,2.408,2.408,0,0,1-2.762-1.15,3.507,3.507,0,0,1-.35-1.508c-.034-2.636-.016-5.274-.016-7.911v-.622Z" transform="translate(-145.096 0)" fill="#3683ff"/>
  </g>
</svg>
