<svg xmlns="http://www.w3.org/2000/svg" width="50.003" height="50.001" viewBox="0 0 50.003 50.001">
  <path id="person-01" d="M128.636,98.661a21.1,21.1,0,0,0-42.068-2.24c-.087.741-.083,1.492-.122,2.24H82.54V97.194c.122-.963.224-1.931.391-2.887A25.049,25.049,0,0,1,98.963,75.17c.1-.038.2-.091.344-.155a14.351,14.351,0,0,1-6.2-12.172,13.868,13.868,0,0,1,4.329-10.037,14.458,14.458,0,1,1,18.44,22.15c10.414,4.467,16.268,12.158,16.664,23.7Zm-21.087-46.1a10.545,10.545,0,1,0,10.539,10.578A10.585,10.585,0,0,0,107.549,52.565Z" transform="translate(-82.54 -48.661)" fill="#7f7f7f"/>
</svg>
