<svg xmlns="http://www.w3.org/2000/svg" width="49" height="48.999" viewBox="0 0 49 48.999">
  <g id="view_2-01" data-name="view 2-01" transform="translate(-86 -65.44)">
    <path id="Path_240" data-name="Path 240" d="M429.842,74.245h-2.863V68.307H421V65.44h8.847Z" transform="translate(-294.847)" fill="#3683ff"/>
    <path id="Path_241" data-name="Path 241" d="M86,410.167V401.44h2.862v5.835H94.9v2.892Z" transform="translate(0 -295.727)" fill="#3683ff"/>
    <path id="Path_242" data-name="Path 242" d="M420.51,409.595v-2.851h6.011V400.79h2.89v8.8Z" transform="translate(-294.416 -295.155)" fill="#3683ff"/>
    <path id="Path_243" data-name="Path 243" d="M127.306,187.789a24.57,24.57,0,0,1-13.2-3.909,28.473,28.473,0,0,1-8.825-8.619.631.631,0,0,1,0-.8,27.751,27.751,0,0,1,5.654-6.321,25.97,25.97,0,0,1,10.188-5.372,23.928,23.928,0,0,1,17.7,2.051,28.04,28.04,0,0,1,10.548,9.628.658.658,0,0,1,0,.839,27.348,27.348,0,0,1-5.492,6.212,26.2,26.2,0,0,1-10.244,5.464,24.649,24.649,0,0,1-6.333.828Zm-18.8-12.906a26.922,26.922,0,0,0,3.97,4.231,22.421,22.421,0,0,0,13.747,5.753,21.281,21.281,0,0,0,11.027-2.349,26.3,26.3,0,0,0,8.232-6.73c.25-.3.479-.623.707-.925C135.759,161.065,118.2,161.884,108.505,174.882Z" transform="translate(-16.846 -84.924)" fill="#3683ff"/>
    <path id="Path_244" data-name="Path 244" d="M95,65.73v2.833H89.035v5.855H86.18V65.73Z" transform="translate(-0.158 -0.255)" fill="#3683ff"/>
    <path id="Path_245" data-name="Path 245" d="M227.06,215.176a8.618,8.618,0,1,1,8.647-8.577,8.618,8.618,0,0,1-8.647,8.577Zm.007-2.871a5.747,5.747,0,1,0-5.726-5.768A5.747,5.747,0,0,0,227.067,212.305Z" transform="translate(-116.593 -116.619)" fill="#3683ff"/>
  </g>
</svg>
