<svg xmlns="http://www.w3.org/2000/svg" width="20.724" height="50.43" viewBox="0 0 20.724 50.43">
  <g id="office-worker-svgrepo-com" transform="translate(-150.796)">
    <path id="Path_59" data-name="Path 59" d="M193.907,123.391l-5.834,5.834-5.833-5.834a5.4,5.4,0,0,0-3.135,4.4v15.963a2.084,2.084,0,0,0,2.083,2.083h1.455l.793,13.614a2.217,2.217,0,0,0,2.217,2.217H190.5a2.217,2.217,0,0,0,2.217-2.217l.793-13.614h1.453a2.083,2.083,0,0,0,2.083-2.083V127.791A5.394,5.394,0,0,0,193.907,123.391Z" transform="translate(-25.52 -111.238)" fill="#fff"/>
    <path id="Path_60" data-name="Path 60" d="M227.189,9.5a4.749,4.749,0,1,0-4.75-4.748A4.748,4.748,0,0,0,227.189,9.5Z" transform="translate(-64.586)" fill="#fff"/>
    <path id="Path_61" data-name="Path 61" d="M154.969,362.581h-3.54a.632.632,0,0,0-.633.633V373.52a.632.632,0,0,0,.633.633h3.54a.633.633,0,0,0,.633-.633V363.214A.633.633,0,0,0,154.969,362.581Z" transform="translate(0 -326.868)" fill="#fff"/>
    <path id="Path_62" data-name="Path 62" d="M257.189,116.76v3.731l1.277,1.709,1.279-1.709V116.76h-2.556Z" transform="translate(-95.914 -105.26)" fill="#fff"/>
  </g>
</svg>
